<?xml version="1.0" encoding="utf-8"?>
<!-- Coffin mark derived from static/brand/logo-mark.svg; wordmark outlined from Space Grotesk 500. -->
<svg viewBox="0 0 220 62" xmlns="http://www.w3.org/2000/svg" width="440" height="124">
  <g transform="translate(8 4) scale(0.675)">
    <path d="M1.5 0Q0 0 0 1.5L0 16.5L2.6 77.5Q2.6 80 5.1 80L50.9 80Q53.4 80 53.4 77.5L56 16.5L56 1.5Q56 0 54.5 0L39.5 0Q38.2 0 37 2.6L28 17.8L19 2.6Q17.8 0 16.5 0Z" fill="#644AC9"/>
    <rect x="5.6" y="21.5" width="44.8" height="13" rx="2" fill="#FFFBEB">
      <animate attributeName="fill" values="#FFFBEB;#036A96;#FFFBEB" dur="2s" begin="0s" repeatCount="indefinite"/>
    </rect>
    <rect x="7.4" y="40.5" width="41.2" height="13" rx="2" fill="#FFFBEB">
      <animate attributeName="fill" values="#FFFBEB;#14710A;#FFFBEB" dur="2s" begin="0.15s" repeatCount="indefinite"/>
    </rect>
    <rect x="9.2" y="59.5" width="37.6" height="13" rx="2" fill="#FFFBEB">
      <animate attributeName="fill" values="#FFFBEB;#A3144D;#FFFBEB" dur="2s" begin="0.3s" repeatCount="indefinite"/>
    </rect>
  </g>
  <path d="M64.88 43L60.77 43L60.77 16.40L71.95 16.40Q74.42 16.40 76.28 17.27Q78.14 18.15 79.20 19.73Q80.27 21.30 80.27 23.51L80.27 23.92Q80.27 26.43 79.07 27.93Q77.87 29.43 76.16 30.04L76.16 30.65Q77.61 30.73 78.48 31.64Q79.36 32.55 79.36 34.18L79.36 43L75.25 43L75.25 34.75Q75.25 33.73 74.70 33.12Q74.15 32.51 72.97 32.51L64.88 32.51L64.88 43M64.88 20.12L64.88 28.79L71.49 28.79Q73.69 28.79 74.91 27.69Q76.13 26.58 76.13 24.61L76.13 24.30Q76.13 22.37 74.93 21.25Q73.73 20.12 71.49 20.12L64.88 20.12M90.72 43.53Q88.70 43.53 87.13 42.85Q85.55 42.16 84.62 40.83Q83.69 39.50 83.69 37.60Q83.69 34.75 85.72 33.29Q87.75 31.83 90.83 31.83L96.53 31.83L96.53 30.61Q96.53 29.02 95.54 28.01Q94.56 27 92.50 27Q90.49 27 89.43 27.95Q88.36 28.90 88.02 30.42L84.37 29.24Q84.83 27.76 85.83 26.51Q86.84 25.25 88.49 24.49Q90.15 23.73 92.54 23.73Q96.19 23.73 98.28 25.60Q100.37 27.46 100.37 30.88L100.37 38.59Q100.37 39.73 101.43 39.73L103.03 39.73L103.03 43L100.10 43Q98.81 43 97.98 42.32Q97.14 41.63 97.14 40.45L97.14 40.34L96.53 40.34Q96.23 40.95 95.62 41.69Q95.01 42.43 93.83 42.98Q92.66 43.53 90.72 43.53M91.29 40.30Q93.61 40.30 95.07 38.95Q96.53 37.60 96.53 35.25L96.53 34.87L91.06 34.87Q89.50 34.87 88.55 35.53Q87.60 36.20 87.60 37.49Q87.60 38.78 88.59 39.54Q89.58 40.30 91.29 40.30M115.08 43.53Q112.38 43.53 110.19 42.39Q108.01 41.25 106.73 39.09Q105.46 36.92 105.46 33.88L105.46 33.39Q105.46 30.38 106.73 28.22Q108.01 26.05 110.19 24.89Q112.38 23.73 115.08 23.73Q117.77 23.73 119.69 24.72Q121.61 25.71 122.73 27.34Q123.85 28.98 124.23 30.95L120.43 31.75Q120.17 29.89 118.89 28.56Q117.62 27.23 115.15 27.23Q112.72 27.23 111.05 28.86Q109.38 30.50 109.38 33.46L109.38 33.80Q109.38 36.77 111.05 38.40Q112.72 40.04 115.15 40.04Q117.62 40.04 118.91 38.76Q120.21 37.49 120.55 35.51L124.35 36.39Q123.89 38.33 122.73 39.96Q121.57 41.59 119.67 42.56Q117.77 43.53 115.08 43.53M132.78 43L128.87 43L128.87 16.40L132.78 16.40L132.78 31.56L133.39 31.56L140.76 24.27L145.97 24.27L136.51 33.35L146.27 43L141.14 43L133.39 35.21L132.78 35.21L132.78 43M156.99 43.34Q154.86 43.34 153.19 42.39Q151.52 41.44 150.57 39.69Q149.62 37.95 149.62 35.51L149.62 24.27L153.53 24.27L153.53 35.25Q153.53 37.68 154.75 38.84Q155.96 40 158.13 40Q160.52 40 161.99 38.38Q163.45 36.77 163.45 33.73L163.45 24.27L167.36 24.27L167.36 43L163.53 43L163.53 40.19L162.92 40.19Q162.39 41.33 161.02 42.34Q159.65 43.34 156.99 43.34M177.05 43L173.14 43L173.14 16.40L177.05 16.40L177.05 43M188.68 43.53Q186.67 43.53 185.09 42.85Q183.51 42.16 182.58 40.83Q181.65 39.50 181.65 37.60Q181.65 34.75 183.69 33.29Q185.72 31.83 188.80 31.83L194.50 31.83L194.50 30.61Q194.50 29.02 193.51 28.01Q192.52 27 190.47 27Q188.45 27 187.39 27.95Q186.33 28.90 185.98 30.42L182.34 29.24Q182.79 27.76 183.80 26.51Q184.81 25.25 186.46 24.49Q188.11 23.73 190.51 23.73Q194.15 23.73 196.24 25.60Q198.33 27.46 198.33 30.88L198.33 38.59Q198.33 39.73 199.40 39.73L200.99 39.73L200.99 43L198.07 43Q196.78 43 195.94 42.32Q195.10 41.63 195.10 40.45L195.10 40.34L194.50 40.34Q194.19 40.95 193.58 41.69Q192.98 42.43 191.80 42.98Q190.62 43.53 188.68 43.53M189.25 40.30Q191.57 40.30 193.03 38.95Q194.50 37.60 194.50 35.25L194.50 34.87L189.02 34.87Q187.47 34.87 186.52 35.53Q185.57 36.20 185.57 37.49Q185.57 38.78 186.55 39.54Q187.54 40.30 189.25 40.30" fill="#1F1F1F"/>
</svg>
