<svg xmlns="http://www.w3.org/2000/svg" viewBox="0 0 56 80">
  <!-- Generated by scripts/generate-brand-assets.ts. Do not edit by hand. -->
  <path d="M1.5 0Q0 0 0 1.5L0 16.5L2.6 77.5Q2.6 80 5.1 80L50.9 80Q53.4 80 53.4 77.5L56 16.5L56 1.5Q56 0 54.5 0L39.5 0Q38.2 0 37 2.6L28 17.8L19 2.6Q17.8 0 16.5 0ZM7.6 21.5h40.8q2 0 2 2v9q0 2 -2 2h-40.8q-2 0 -2 -2v-9q0 -2 2 -2ZM9.4 40.5h37.2q2 0 2 2v9q0 2 -2 2h-37.2q-2 0 -2 -2v-9q0 -2 2 -2ZM11.2 59.5h33.6q2 0 2 2v9q0 2 -2 2h-33.6q-2 0 -2 -2v-9q0 -2 2 -2Z" fill="#BD93F9" fill-rule="evenodd"/>
</svg>
